<?xml version="1.0" encoding="utf-8"?>
<!-- Uploaded to: SVG Repo, www.svgrepo.com, Generator: SVG Repo Mixer Tools -->
<svg version="1.1" id="Uploaded to svgrepo.com" xmlns="http://www.w3.org/2000/svg" xmlns:xlink="http://www.w3.org/1999/xlink" 
	 width="800px" height="800px" viewBox="0 0 32 32" xml:space="preserve">
<style type="text/css">
	.pictogram_een{fill:#F4D6B0;}
	.pictogram_twee{fill:#F8AD89;}
	.pictogram_vier{fill:#E54D2E;}
	.pictogram_vijf{fill:#01A59C;}
	.pictogram_zes{fill:#0C6667;}
	.st0{fill:#F27261;}
	.st1{fill:none;}
	.st2{clip-path:url(#SVGID_2_);fill:#F27261;}
	.st3{clip-path:url(#SVGID_2_);fill:none;}
	.st4{clip-path:url(#SVGID_6_);fill:#F4D6B0;}
	.st5{clip-path:url(#SVGID_8_);fill:#F27261;}
	.st6{clip-path:url(#SVGID_8_);fill:none;}
	.st7{clip-path:url(#SVGID_10_);fill:#F27261;}
	.st8{clip-path:url(#SVGID_10_);fill:none;}
	.st9{fill:#F4D6B0;}
</style>
<g>
	<circle class="pictogram_vijf" cx="16" cy="16.077" r="16"/>
	<path class="pictogram_twee" d="M16,0.077c-3.428,0-6.597,1.088-9.201,2.923h18.401C22.597,1.164,19.428,0.077,16,0.077z"/>
	<path class="pictogram_zes" d="M22,25H2.719c2.606,3.872,6.862,6.537,11.759,7h3.045c1.571-0.148,3.072-0.528,4.478-1.097V25z"/>
	<path class="pictogram_een" d="M21,8.537V6h-2V3h-4v3h-2v2.538l-5,4.166l3.219,6.236c0.379,0.733,1.281,1.026,2.021,0.645
		c0.402-0.208,0.662-0.578,0.76-0.987v-0.723c-0.027-0.106-0.063-0.211-0.115-0.311l-2.115-4.097L13.531,12h6.938l1.761,1.468
		l-2.115,4.097c-0.053,0.102-0.089,0.209-0.116,0.318v0.711c0.097,0.41,0.356,0.783,0.761,0.992
		c0.744,0.383,1.644,0.085,2.021-0.645L26,12.704L21,8.537z"/>
	<rect x="14" y="15" class="pictogram_vier" width="6" height="6"/>
</g>
</svg>